HIERARCHY
ROOT Hips
{
  OFFSET 196.326 95.9168 97.7182
  CHANNELS 6 Xposition Yposition Zposition Zrotation Xrotation Yrotation
  JOINT LeftUpLeg
  {
    OFFSET 8.64259 1.95398 -2.38835
    CHANNELS 3 Zrotation Xrotation Yrotation
    JOINT LeftLeg
    {
      OFFSET 43.7702 0 0
      CHANNELS 3 Zrotation Xrotation Yrotation
      JOINT LeftFoot
      {
        OFFSET 40.6238 0 0
        CHANNELS 3 Zrotation Xrotation Yrotation
        JOINT LeftToeBase
        {
          OFFSET 12.7242 0 0
          CHANNELS 3 Zrotation Xrotation Yrotation
          End Site
          {
            OFFSET 0 0 0
          }
        }
      }
    }
  }
  JOINT RightUpLeg
  {
    OFFSET -8.2249 1.95398 -2.59336
    CHANNELS 3 Zrotation Xrotation Yrotation
    JOINT RightLeg
    {
      OFFSET 43.5653 0 0
      CHANNELS 3 Zrotation Xrotation Yrotation
      JOINT RightFoot
      {
        OFFSET 40.6238 0 0
        CHANNELS 3 Zrotation Xrotation Yrotation
        JOINT RightToeBase
        {
          OFFSET 12.7242 0 0
          CHANNELS 3 Zrotation Xrotation Yrotation
          End Site
          {
            OFFSET 0 0 0
          }
        }
      }
    }
  }
  JOINT Spine
  {
    OFFSET 0.165834 0.87714 6.61349
    CHANNELS 3 Zrotation Xrotation Yrotation
    JOINT Spine1
    {
      OFFSET 7.38963 1.71661e-005 0
      CHANNELS 3 Zrotation Xrotation Yrotation
      JOINT Spine2
      {
        OFFSET 11.9445 1.14441e-005 0
        CHANNELS 3 Zrotation Xrotation Yrotation
        JOINT Spine3
        {
          OFFSET 14.7254 4.19617e-005 0
          CHANNELS 3 Zrotation Xrotation Yrotation
          JOINT Spine4
          {
            OFFSET 10.9679 0 0
            CHANNELS 3 Zrotation Xrotation Yrotation
            JOINT RightShoulder
            {
              OFFSET 2.46616 -1.6653 3.69651
              CHANNELS 3 Zrotation Xrotation Yrotation
              JOINT RightArm
              {
                OFFSET 13.0012 0 0
                CHANNELS 3 Zrotation Xrotation Yrotation
                JOINT RightForeArm
                {
                  OFFSET 28.7848 1.52588e-005 0
                  CHANNELS 3 Zrotation Xrotation Yrotation
                  JOINT RightHand
                  {
                    OFFSET 26.5688 1.52588e-005 0
                    CHANNELS 3 Zrotation Xrotation Yrotation
                    End Site
                    {
                      OFFSET 0 0 0
                    }
                  }
                }
              }
            }
            JOINT LeftShoulder
            {
              OFFSET 2.38034 -1.29275 -3.75231
              CHANNELS 3 Zrotation Xrotation Yrotation
              JOINT LeftArm
              {
                OFFSET 16.3182 6.10351e-005 0
                CHANNELS 3 Zrotation Xrotation Yrotation
                JOINT LeftForeArm
                {
                  OFFSET 27.0901 0 0
                  CHANNELS 3 Zrotation Xrotation Yrotation
                  JOINT LeftHand
                  {
                    OFFSET 24.5451 1.52588e-005 0
                    CHANNELS 3 Zrotation Xrotation Yrotation
                    End Site
                    {
                      OFFSET 0 0 0
                    }
                  }
                }
              }
            }
            JOINT Neck
            {
              OFFSET 5.0226 -0.0266342 0
              CHANNELS 3 Zrotation Xrotation Yrotation
              JOINT Head
              {
                OFFSET 6.69363 2.86102e-005 0
                CHANNELS 3 Zrotation Xrotation Yrotation
                End Site
                {
                  OFFSET 0 0 0
                }
              }
            }
          }
        }
      }
    }
  }
}
MOTION
Frames:	7
Frame Time:	0.0416667
-53.2731 97.0662 49.5934 -74.9339 -87.4228 -75.2025 -172.205 5.00334 91.3644 -13.4454 13.6569 -0.441164 56.4567 3.16626 12.7048 50.1418 17.0203 -27.3699 177.937 7.51832 88.9669 -20.4925 5.99376 -1.74705 63.4976 -1.87259 -1.00075 38.632 1.06596 19.0577 0.184018 6.73225 -90.0022 13.4095 0.364098 -0.0507228 1.73865 0.361505 -0.0666972 -20.7969 0.362506 0.061062 -0.78427 0.3625 0.0610469 73.0337 -51.3093 -125.373 6.53259 -17.3746 -21.5485 7.3188 -7.12118 -39.6291 -9.35076 -0.553966 1.61429 -109.897 -41.1946 45.3356 -8.88757 14.5782 -19.7385 -4.29026 -0.557092 -32.2846 9.87186 0.200654 -1.65577 11.8155 3.80782 4.12745 11.7505 3.46528 4.54258 
-53.4275 96.6807 48.1273 -65.7775 -85.9905 -65.7564 -172.032 6.06511 91.3474 -12.3365 12.5919 -0.648828 57.0989 4.77901 15.4819 51.1003 17.1238 -30.0448 178.695 8.84384 89.7615 -19.471 7.17543 -1.87665 65.2673 -2.29559 -1.22954 36.1992 0.506138 20.6683 0.23734 6.93184 -90.0529 13.0106 0.44583 -0.160022 1.33969 0.438357 -0.179498 -21.1961 0.473315 -0.01863 -1.18342 0.473317 -0.018631 72.4828 -52.4834 -125.577 11.2782 -15.9285 -11.5737 6.46027 -12.3252 -30.1698 -9.99937 -0.834083 4.47958 -111.772 -41.7271 42.9013 -14.3003 16.0013 -12.3933 -3.63316 10.2939 -21.2175 11.8662 0.921536 3.64405 12.7412 3.72624 4.5306 13.5102 3.29192 4.39092 
-53.5398 96.5395 46.5775 -50.9133 -84.0948 -50.6095 -172.222 9.10315 91.2934 -12.6988 9.75164 -0.490217 58.5866 5.40045 14.4882 47.6322 14.5808 -31.8834 179.364 11.2692 90.2536 -18.2644 7.10152 -1.87787 65.4286 -2.39259 -1.27747 34.7539 0.144709 21.4281 0.176455 7.06879 -90.0616 12.7365 0.321071 -0.16146 1.06562 0.313651 -0.175442 -21.4698 0.354754 -0.0574975 -1.45719 0.354748 -0.0575094 73.694 -52.9334 -123.678 16.4637 -14.107 0.33439 3.84873 -16.5381 -27.0177 -7.93127 -0.84863 7.03265 -109.982 -42.3365 45.8623 -22.9197 15.8435 -1.15411 -3.10503 13.3165 -19.1046 12.5111 1.11874 4.78378 14.1655 4.16691 4.10256 15.4946 3.90115 4.61799 
-53.6089 96.5456 44.8717 -42.2204 -82.4056 -41.7192 -172.367 11.257 91.3971 -11.3698 9.59415 -0.578394 60.1867 6.03562 13.3001 39.553 10.2251 -22.3023 179.961 13.6122 90.5927 -17.1057 6.522 -1.90458 65.1474 -2.39391 -1.28066 38.565 1.11587 21.1779 0.0787502 7.23684 -89.9971 12.4003 0.157901 -0.0118191 0.729403 0.15724 -0.0187636 -21.8058 0.154158 0.0361905 -1.79318 0.154151 0.0361733 74.6324 -53.1866 -122.252 20.0102 -15.1227 12.1016 2.98281 -16.9372 -28.6723 -7.04674 -0.755428 6.78422 -107.1 -42.2815 50.0913 -29.8925 15.7656 10.8408 -1.60519 13.7314 -22.6023 8.05154 0.702723 4.328 15.047 4.24067 2.80964 17.0073 4.41565 4.93839 
-53.6699 96.6871 43.3863 -33.3812 -80.6304 -32.6556 -172.455 13.6648 91.5195 -10.2528 9.35093 -0.698219 60.86 6.69593 13.6234 44.94 14.4722 -20.282 180 15.3668 90.7745 -14.9573 7.06011 -1.35849 66.8287 -2.84729 -1.5115 47.289 3.02276 18.5269 0.0242755 7.34371 -89.9615 12.1865 0.0665446 0.06952 0.51554 0.0695285 0.0665028 -22.0196 0.0425691 0.0862982 -2.00695 0.042571 0.0862961 76.1275 -52.0856 -120.632 24.6531 -16.3 20.8532 2.77408 -18.3371 -29.0832 -8.14774 -0.889482 7.32668 -104.803 -41.6482 53.23 -35.8964 15.428 19.8449 -1.46448 11.5693 -25.6826 9.78047 0.847572 4.42516 15.8777 4.22798 1.94725 17.0639 4.64864 5.06394 
-53.8057 96.812 42.1949 -29.0611 -78.3196 -27.9298 -172.336 16.1476 91.8249 -9.67102 8.69731 -0.902812 63.5627 9.43603 15.2543 56.002 23.982 -16.7915 -179.758 15.785 91.1962 -10.7961 6.8906 -0.932001 70.5197 -4.10131 -2.11698 49.8758 2.98297 13.4848 0.0834377 7.38474 -89.9296 12.1043 0.199188 0.118585 0.433337 0.20423 0.109705 -22.1019 0.154331 0.172965 -2.08921 0.154342 0.172961 76.1535 -51.5217 -120.843 28.1108 -16.0757 26.3652 3.32352 -18.6212 -28.2594 -7.26586 -0.804776 7.25555 -102.874 -41.079 55.9167 -39.4647 15.4341 24.8417 -2.03371 10.1843 -26.9191 10.772 0.799584 3.34521 17.5981 4.07039 0.392592 16.0068 4.96334 5.55472 
-53.7745 97.0215 41.2665 -26.5542 -77.0024 -24.9817 -172.188 17.4266 91.9695 -9.28013 7.53599 -0.9473 67.9059 12.9167 14.7213 58.0559 28.3957 -8.81157 -179.982 15.4578 91.5015 -7.07138 8.93564 -0.166447 72.5218 -4.88856 -2.44058 55.2627 3.44527 10.5931 0.0885533 7.44312 -89.9097 11.9874 0.218716 0.156424 0.31645 0.2254 0.146652 -22.2187 0.161594 0.214933 -2.20608 0.161595 0.21493 76.5989 -51.1387 -120.373 30.455 -14.9638 28.6876 2.60475 -18.8883 -27.9069 -6.68084 -0.70741 6.33218 -102.111 -40.6296 56.8902 -41.6845 15.0541 27.6231 -2.5078 9.15872 -27.2848 11.7326 0.75556 2.46025 18.6646 3.64586 -0.236964 15.6538 4.6081 5.01549 
